<?xml version="1.0" encoding="UTF-8" standalone="no"?>
<svg
   xmlns:dc="http://purl.org/dc/elements/1.1/"
   xmlns:cc="http://creativecommons.org/ns#"
   xmlns:rdf="http://www.w3.org/1999/02/22-rdf-syntax-ns#"
   xmlns:svg="http://www.w3.org/2000/svg"
   xmlns="http://www.w3.org/2000/svg"
   xmlns:sodipodi="http://sodipodi.sourceforge.net/DTD/sodipodi-0.dtd"
   xmlns:inkscape="http://www.inkscape.org/namespaces/inkscape"
   version="1.1"
   width="841.88977"
   height="595.27557"
   id="svg4155"
   inkscape:version="0.91 r13725"
   viewBox="0 0 841.88977 595.27557"
   sodipodi:docname="Descruzando os Braços - logo.svg">
  <metadata
     id="metadata4163">
    <rdf:RDF>
      <cc:Work
         rdf:about="">
        <dc:format>image/svg+xml</dc:format>
        <dc:type
           rdf:resource="http://purl.org/dc/dcmitype/StillImage" />
        <dc:title></dc:title>
      </cc:Work>
    </rdf:RDF>
  </metadata>
  <defs
     id="defs4161" />
  <sodipodi:namedview
     pagecolor="#ffffff"
     bordercolor="#666666"
     borderopacity="1"
     objecttolerance="10"
     gridtolerance="10"
     guidetolerance="10"
     inkscape:pageopacity="0"
     inkscape:pageshadow="2"
     inkscape:window-width="1366"
     inkscape:window-height="715"
     id="namedview4159"
     showgrid="false"
     inkscape:zoom="0.86514553"
     inkscape:cx="420.94489"
     inkscape:cy="297.63779"
     inkscape:window-x="0"
     inkscape:window-y="28"
     inkscape:window-maximized="1"
     inkscape:current-layer="svg4155" />
  <path
     d="m 394.5683,226.3597 c -1.0889,-5.7933 -2.9481,-10.749 -5.6932,-14.9734 -13.4426,-20.6866 -55.8742,-23.4083 -78.7879,-23.6971 -27.0492,-0.3411 -58.1436,1.9983 -78.786,2.6695 -44.0884,1.4336 -92.805,0.4104 -131.6531,-9.1452 3.3868,11.6752 7.6664,23.0189 12.8367,34.0318 53.8196,14.2575 105.0333,21.8995 153.6412,22.926 -38.8612,6.0319 -87.3407,3.6832 -145.4384,-7.0458 6.8215,12.0728 14.7803,23.7237 23.8772,34.9516 40.2771,1.1068 83.3459,0.4697 129.2066,-1.9115 -34.1119,8.775 -73.3369,13.8529 -117.6752,15.2335 12.1551,13.3892 24.5737,25.0295 37.2555,34.92 35.4269,-7.8383 66.566,-15.8915 93.4169,-24.1593 -30.2834,13.9931 -57.4016,24.9874 -81.3547,32.9829 12.8387,8.7825 25.9404,15.8198 39.3051,21.1083 18.1808,-9.655 36.0201,-19.5303 53.5177,-29.6259 -11.384,10.3633 -25.7993,21.7453 -43.2462,34.1461 30.5555,12.5068 65.2308,18.5191 104.0269,18.0336 12.1225,-0.96 23.9727,-2.4236 35.5509,-4.3906 l 0,-57.7279 -66.1325,0 0,-52.753 66.1325,0 0,-25.5736 z M 542.0262,423.554 c 0,-4.8816 1.7229,-9.7633 6.9738,-9.7633 5.6611,0 6.7688,5.907 6.7688,10.0914 0,4.9229 -1.477,9.8453 -6.6869,9.8453 -5.9072,0 -7.0557,-5.4967 -7.0557,-10.1734 z m 4.9724,59.5712 c -1.5026,0 -2.9494,-0.1672 -4.0067,-0.5009 -1.0019,-0.3339 -1.1688,-0.779 -1.1688,-1.8363 l 0,-3.3947 -5.6763,0.3895 0,8.7924 c 3.339,1.5584 6.7895,2.2818 11.2415,2.2818 7.6795,0 13.4671,-4.0067 13.4671,-11.3526 0,-7.1788 -5.3425,-9.4604 -10.4065,-11.0742 -4.1738,-1.28 -7.4015,-2.2262 -7.4015,-5.6763 0,-3.4503 2.56,-4.7861 5.8433,-4.7861 1.1128,0 2.5599,0.1116 3.6172,0.4453 1.0018,0.3339 1.1687,0.7791 1.1687,1.8364 l 0,3.2278 5.6763,-0.3895 0,-8.3475 c -3.339,-1.5583 -6.7892,-2.2817 -10.4622,-2.2817 -7.6796,0 -12.9108,4.1181 -12.9108,10.9073 0,7.1234 5.1198,9.3492 10.6292,10.8517 3.8955,1.0573 7.0675,2.0591 7.0675,5.5652 0,4.1736 -3.0052,5.3424 -6.678,5.3424 l 0,0 z m -41.1807,-13.69 c 0,-6.6222 2.3373,-13.2447 9.4606,-13.2447 7.6793,0 9.1821,8.0135 9.1821,13.6898 0,6.6782 -2.0037,13.356 -9.0713,13.356 -8.0136,0 -9.5714,-7.457 -9.5714,-13.8011 z m 25.543,0.2781 c 0,-14.135 -7.4572,-19.2547 -15.7487,-19.2547 -7.7909,0 -16.7504,5.0085 -16.7504,19.2547 0,12.6884 6.2327,19.1437 16.138,19.1437 9.7387,0 16.3611,-6.3997 16.3611,-19.1437 z m -44.9093,-13.3002 c 1.002,0.3339 1.1689,0.7791 1.1689,1.8364 l 0,4.3407 5.6763,-0.3895 0,-9.4604 c -3.3391,-1.5583 -7.1789,-2.2817 -10.4622,-2.2817 -8.5701,0 -17.4741,4.8415 -17.4741,19.3663 0,11.4638 5.064,17.7522 14.3575,18.8095 l -1.7807,5.6206 c 2.9496,0 4.8973,0.3897 4.8973,2.1146 0,1.1133 -0.7234,2.0592 -2.6713,2.0592 -1.2798,0 -2.8936,-0.4453 -3.7284,-0.7233 l -0.8905,2.8936 c 1.28,0.5564 3.1721,1.0019 5.0084,1.0019 3.0608,0 6.7893,-1.3359 6.7893,-5.3982 0,-2.8382 -2.2257,-4.3408 -5.1753,-4.5633 l 0.7233,-2.7825 c 3.5615,0 7.9026,-0.6678 10.9631,-2.2818 l 0,-9.6272 -5.6763,-0.3895 0,4.452 c 0,1.0573 -0.1669,1.5023 -1.1686,1.8363 -1.0574,0.3339 -2.5043,0.5009 -4.0626,0.5009 -7.7351,0.167 -10.6289,-5.231 -10.6289,-13.968 0,-8.4033 3.5058,-13.4119 10.5178,-13.4119 1.1129,0 2.5597,0.1116 3.617,0.4453 z m -42.1825,0.9461 0.167,0 5.0086,15.8602 -10.3508,0 5.1752,-15.8602 z m -14.1907,24.5415 c -0.3896,1.0573 -0.7235,1.447 -1.6692,1.5584 l -1.8363,0.1669 0,4.5076 12.8547,0 0,-4.7304 -3.3389,-0.1669 1.6693,-4.8971 13.0222,0 1.1686,3.4503 c 0.3895,1.2242 -0.1669,1.5582 -1.3354,1.6696 l -2.1148,0.1669 0,4.5076 14.3577,0 0,-4.7304 -3.1721,-0.1669 -0.0558,0 -11.3524,-32.11 -12.7438,0 0,4.5077 3.5062,0.3338 -8.96,25.9329 z m -26.6003,-13.6342 0,-11.7421 4.062,0 c 4.7306,0 7.6241,0.6123 7.6241,5.6207 0,3.951 -2.1148,6.1214 -6.8446,6.1214 l -4.8415,0 z m -10.2397,19.8671 13.8569,0 0,-4.7304 -3.6172,-0.1669 0,-9.683 5.064,0 c 1.9477,0 2.7266,0.8348 3.5061,2.5599 l 2.6155,5.565 c 0.5005,1.113 0.2225,1.6139 -1.0573,1.7809 l -1.6143,0.1669 0,4.5076 13.746,0 0,-4.7304 -3.1721,-0.1111 -4.0071,-8.7371 c -0.8344,-1.8921 -1.6692,-2.838 -3.1716,-3.3946 3.0606,-1.2243 6.6775,-4.2295 6.6775,-9.7945 0,-7.5683 -5.1751,-10.2396 -13.3557,-10.2396 l -15.1923,0 0,4.7303 3.1719,0.1669 0,25.8772 c 0,1.113 -0.6676,1.447 -1.614,1.5584 l -1.8363,0.1669 0,4.5076 z m -23.1502,-31.8873 4.5076,0 c 3.6173,0 6.3441,0.8904 6.3441,4.8971 0,2.9495 -1.9479,5.1754 -6.7338,5.1754 l -4.1179,0 0,-10.0725 z m 0,15.0254 5.5093,0 c 4.3965,0 6.9562,2.0032 6.9562,5.7319 0,3.3946 -1.7808,5.899 -7.2343,5.899 l -5.2312,0 0,-11.6309 z m -9.9614,-20.1454 0,4.7303 3.1722,0.1669 0,25.8772 c 0,1.113 -0.668,1.447 -1.614,1.5584 l -1.8364,0.1669 0,4.5076 15.6378,0 c 9.2377,0 14.2464,-3.84 14.2464,-11.0744 0,-4.8971 -2.8383,-7.791 -7.0121,-8.8483 3.0051,-1.5582 5.1198,-4.118 5.1198,-7.7911 0,-7.4015 -5.7319,-9.2935 -12.0205,-9.2935 l -15.6932,0 z m -28.938,31.9989 c -1.5024,0 -2.9491,-0.1672 -4.0064,-0.5009 -1.0019,-0.3339 -1.1691,-0.779 -1.1691,-1.8363 l 0,-3.3947 -5.6763,0.3895 0,8.7924 c 3.339,1.5584 6.7898,2.2818 11.2418,2.2818 7.6794,0 13.4668,-4.0067 13.4668,-11.3526 0,-7.1788 -5.3423,-9.4604 -10.4063,-11.0742 -4.174,-1.28 -7.4015,-2.2262 -7.4015,-5.6763 0,-3.4503 2.5601,-4.7861 5.8431,-4.7861 1.1131,0 2.5599,0.1116 3.6172,0.4453 1.0018,0.3339 1.1687,0.7791 1.1687,1.8364 l 0,3.2278 5.6763,-0.3895 0,-8.3475 c -3.339,-1.5583 -6.7891,-2.2817 -10.4622,-2.2817 -7.6793,0 -12.9108,4.1181 -12.9108,10.9073 0,7.1234 5.1199,9.3492 10.6292,10.8517 3.8955,1.0573 7.0675,2.0591 7.0675,5.5652 0,4.1736 -3.0052,5.3424 -6.678,5.3424 l 0,0 z m -41.1805,-13.69 c 0,-6.6222 2.3372,-13.2447 9.4604,-13.2447 7.6796,0 9.1824,8.0135 9.1824,13.6898 0,6.6782 -2.0037,13.356 -9.0712,13.356 -8.0135,0 -9.5716,-7.457 -9.5716,-13.8011 z m 25.5429,0.2781 c 0,-14.135 -7.4571,-19.2547 -15.7485,-19.2547 -7.7912,0 -16.7507,5.0085 -16.7507,19.2547 0,12.6884 6.2327,19.1437 16.1383,19.1437 9.7387,0 16.3609,-6.3997 16.3609,-19.1437 z M 560.8554,423.759 c 0,-10.4195 -5.497,-14.1936 -11.6093,-14.1936 -5.7432,0 -12.3476,3.692 -12.3476,14.1936 0,9.3534 4.5944,14.1118 11.8963,14.1118 7.1789,0 12.0606,-4.7176 12.0606,-14.1118 z m -43.9349,-9.7223 3.651,0 c 4.4304,0 7.9994,2.0514 7.9994,9.4353 0,6.5635 -2.8716,9.9274 -7.4663,9.9274 l -4.1841,0 0,-19.3627 z m -7.5481,23.3008 11.6504,0 c 6.6045,0 12.5939,-3.856 12.5939,-14.6038 0,-8.5328 -4.9638,-12.6759 -12.799,-12.6759 l -11.2403,0 0,3.4867 2.3383,0.1231 0,19.0755 c 0,0.8205 -0.4922,1.0667 -1.1896,1.1487 l -1.3537,0.1231 0,3.3226 z m -29.0031,0 10.0506,0 0,-3.487 -2.6665,-0.1231 0,-15.5064 0.0822,0 11.8553,19.1165 4.7997,0 0,-22.5622 c 0,-0.8617 0.3693,-1.2308 0.9846,-1.2718 l 1.4768,-0.123 0,-3.3227 -10.0096,0 0,3.4867 2.7076,0.1231 0,15.2195 -0.0821,0 -11.6092,-18.8293 -7.3841,0 0,3.4867 2.3382,0.1231 0,19.0755 c 0,0.8205 -0.369,1.1074 -1.0666,1.1487 l -1.4769,0.1231 0,3.3226 z m -15.2191,-22.6853 0.1231,0 3.692,11.6913 -7.6301,0 3.815,-11.6913 z m -10.4608,18.0909 c -0.2871,0.7794 -0.5333,1.0667 -1.2305,1.1487 l -1.3538,0.1231 0,3.3226 9.4763,0 0,-3.487 -2.4615,-0.1231 1.2305,-3.6098 9.5994,0 0.8614,2.5433 c 0.287,0.9027 -0.1231,1.1489 -0.9845,1.2309 l -1.5588,0.1231 0,3.3226 10.5838,0 0,-3.487 -2.3382,-0.1231 -0.0412,0 -8.3685,-23.6696 -9.3942,0 0,3.3227 2.5846,0.2461 -6.6048,19.1165 z m -5.0868,-19.3626 0,-3.3227 -17.9266,0 0,6.5225 4.1841,0.2871 0,-1.641 c 0,-0.6973 0.2461,-1.2716 1.1076,-1.2716 l 6.8098,0 -12.389,19.9779 0,3.4048 18.8703,0 0,-7.7941 -4.1841,-0.2873 0,2.8716 c 0,0.7793 -0.1641,1.3128 -1.0255,1.3128 l -7.9584,0 12.5118,-20.06 z m -38.3558,1.4766 c 0,-1.0254 0.4512,-1.2714 1.2306,-1.3536 l 1.3538,-0.123 0,-3.3227 -9.9275,0 0,3.4867 2.3793,0.1231 0,15.0553 c 0,6.4405 3.4459,9.1479 10.1735,9.1479 6.2355,0 10.2967,-3.1177 10.2967,-8.4917 l 0,-14.6448 c 0,-0.8207 0.4515,-1.1486 1.1896,-1.2308 l 1.3539,-0.123 0,-3.3227 -9.7224,0 0,3.4867 2.3794,0.1231 0,15.0143 c 0,3.3639 -2.0512,5.0048 -5.333,5.0048 -3.2819,0 -5.3739,-1.1898 -5.3739,-5.21 l 0,-13.6196 z m -25.0646,7.8355 0,-8.6559 2.9943,0 c 3.487,0 5.6203,0.4514 5.6203,4.1436 0,2.9124 -1.559,4.5123 -5.0458,4.5123 l -3.5688,0 z m -7.5483,14.6449 10.2147,0 0,-3.487 -2.6664,-0.1231 0,-7.1377 3.7329,0 c 1.4357,0 2.01,0.6155 2.5844,1.887 l 1.9283,4.1024 c 0.369,0.8203 0.1638,1.1896 -0.7796,1.3127 l -1.1898,0.1231 0,3.3226 10.1326,0 0,-3.487 -2.3383,-0.0818 -2.9537,-6.4404 c -0.6152,-1.3948 -1.2305,-2.0922 -2.3381,-2.5024 2.2563,-0.9026 4.9227,-3.1179 4.9227,-7.2201 0,-5.5789 -3.8151,-7.548 -9.8454,-7.548 l -11.1992,0 0,3.4867 2.3383,0.1231 0,19.0755 c 0,0.8205 -0.4923,1.0667 -1.1897,1.1487 l -1.3537,0.1231 0,3.3226 z m -8.8198,-23.3827 c 0.7386,0.2461 0.8617,0.5743 0.8617,1.3536 l 0,3.1998 4.1843,-0.2872 0,-6.9737 c -2.4614,-1.1486 -5.292,-1.6819 -7.7124,-1.6819 -6.3173,0 -12.8809,3.5689 -12.8809,14.2759 0,9.353 4.5533,14.0295 12.8809,14.0295 2.6255,0 5.8663,-0.4923 8.1225,-1.6819 l 0,-7.0968 -4.1844,-0.2871 0,3.2817 c 0,0.7795 -0.1231,1.1076 -0.8614,1.3538 -0.7794,0.2462 -1.846,0.3693 -2.9946,0.3693 -5.7022,0.1229 -7.8353,-3.8562 -7.8353,-10.2967 0,-6.1945 2.5843,-9.8865 7.7532,-9.8865 0.8204,0 1.8871,0.0822 2.6664,0.3282 z m -28.7157,19.6908 c -1.1074,0 -2.174,-0.1231 -2.9533,-0.3693 -0.7386,-0.2462 -0.8617,-0.5743 -0.8617,-1.3536 l 0,-2.5024 -4.1841,0.2871 0,6.4815 c 2.4612,1.1486 5.0048,1.6819 8.2866,1.6819 5.661,0 9.9272,-2.9535 9.9272,-8.3686 0,-5.2918 -3.9381,-6.9737 -7.6712,-8.1633 -3.0766,-0.9436 -5.4559,-1.6412 -5.4559,-4.1844 0,-2.5433 1.8872,-3.5279 4.3073,-3.5279 0.8204,0 1.8869,0.0822 2.6664,0.3282 0.7386,0.2461 0.8617,0.5743 0.8617,1.3536 l 0,2.3795 4.1842,-0.2873 0,-6.1533 c -2.4614,-1.1486 -5.0047,-1.6819 -7.7123,-1.6819 -5.6611,0 -9.5171,3.0356 -9.5171,8.0404 0,5.251 3.7739,6.8918 7.8353,7.9993 2.8715,0.7794 5.2099,1.5179 5.2099,4.1023 0,3.0766 -2.2153,3.9382 -4.923,3.9382 l 0,0 z m -11.5272,3.6919 0,-7.302 -4.1844,-0.2871 0,2.0512 c 0,0.8204 -0.0817,1.3128 -1.1483,1.3128 l -6.6049,0 0,-7.6713 9.4764,0 0,-4.1844 -9.4764,0 0,-7.0147 6.0716,0 c 1.1075,0 1.1895,0.4923 1.1895,1.2716 l 0,1.6409 4.1843,-0.2871 0,-6.8096 -18.7882,0 0,3.4867 2.3382,0.1231 0,19.0755 c 0,0.8205 -0.4922,1.0667 -1.1895,1.1487 l -1.3538,0.1231 0,3.3226 19.4855,0 z m -39.2173,-23.3008 3.651,0 c 4.4304,0 7.9994,2.0514 7.9994,9.4353 0,6.5635 -2.8717,9.9274 -7.4661,9.9274 l -4.1843,0 0,-19.3627 z m -7.5481,23.3008 11.6504,0 c 6.6045,0 12.594,-3.856 12.594,-14.6038 0,-8.5328 -4.9639,-12.6759 -12.7991,-12.6759 l -11.2402,0 0,3.4867 2.3382,0.1231 0,19.0755 c 0,0.8205 -0.4924,1.0667 -1.1896,1.1487 l -1.3537,0.1231 0,3.3226 z M 420.9448,93.6741 c -51.0914,0 -92.509,14.5476 -92.509,32.4929 0,17.9452 41.4176,32.4928 92.509,32.4928 51.0914,0 92.509,-14.5476 92.509,-32.4928 0,-17.9453 -41.4176,-32.4929 -92.509,-32.4929 z m 0,7.6454 c -46.0245,0 -83.3346,11.1247 -83.3346,24.8475 0,13.7228 37.3101,24.8474 83.3346,24.8474 46.0245,0 83.3346,-11.1246 83.3346,-24.8474 0,-13.7228 -37.3101,-24.8475 -83.3346,-24.8475 z m 26.3766,125.0402 c 1.0889,-5.7933 2.9481,-10.749 5.6932,-14.9734 13.4427,-20.6866 55.8743,-23.4083 78.788,-23.6971 27.0491,-0.3411 58.1435,1.9983 78.7859,2.6695 44.0885,1.4336 92.8051,0.4104 131.6531,-9.1452 -3.3867,11.6752 -7.6663,23.0189 -12.8367,34.0318 -53.8196,14.2575 -105.0332,21.8995 -153.6411,22.926 38.8612,6.0319 87.3407,3.6832 145.4383,-7.0458 -6.8215,12.0728 -14.7802,23.7237 -23.8771,34.9516 -40.2771,1.1068 -83.346,0.4697 -129.2067,-1.9115 34.1119,8.775 73.3369,13.8529 117.6752,15.2335 -12.155,13.3892 -24.5736,25.0295 -37.2555,34.92 -35.4269,-7.8383 -66.566,-15.8915 -93.4169,-24.1593 30.2835,13.9931 57.4017,24.9874 81.3548,32.9829 -12.8387,8.7825 -25.9404,15.8198 -39.3052,21.1083 -18.1807,-9.655 -36.02,-19.5303 -53.5176,-29.6259 11.3839,10.3633 25.7992,21.7453 43.2461,34.1461 -30.5555,12.5068 -65.2307,18.5191 -104.0269,18.0336 -12.1224,-0.96 -23.9726,-2.4236 -35.5509,-4.3906 l 0,-57.7279 66.1326,0 0,-52.753 -66.1326,0 0,-25.5736 z"
     style="fill:#2c56a6;fill-rule:evenodd"
     id="path4157"
     inkscape:connector-curvature="0" />
</svg>
